<svg width="35" height="35" xmlns="http://www.w3.org/2000/svg">
    <g fill-rule="nonzero" fill="none">
        <path d="M18.85 27a.85.85 0 0 1-.74-.41.8.8 0 0 1 .32-1.11c.8-.43 1.55-.88 2.24-1.34a.87.87 0 0 1 1.18.21.8.8 0 0 1-.22 1.13c-.73.49-1.53.96-2.37 1.42a.87.87 0 0 1-.41.1z" fill="#A2C3D4"/>
        <path d="M16.56 28a.92.92 0 0 1-.41-.1C9.33 24.5 4.95 20 4.13 15.5A6.13 6.13 0 0 1 10.32 8c2.44.07 4.66 1.45 6.15 2.93 1.48-1.48 3.7-2.86 6.14-2.93 1.84-.06 3.5.67 4.82 2.1A6.07 6.07 0 0 1 29 14.54a.92.92 0 1 1-1.84-.07 4.26 4.26 0 0 0-1.08-3.13 4.34 4.34 0 0 0-3.41-1.5c-1.86.05-4.02 1.24-5.5 3.03a.95.95 0 0 1-1.41 0c-1.48-1.79-3.64-2.98-5.5-3.03a4.35 4.35 0 0 0-3.41 1.5c-.87.93-1.19 2.3-.91 3.83.7 3.84 4.82 7.98 11.03 11.07a.92.92 0 0 1-.41 1.75z" fill="#A2C3D4"/>
        <path d="M24.54 28a.9.9 0 0 1-.4-.1c-4.56-2.3-7.5-5.41-8.05-8.5-.27-1.52.08-2.9.98-3.9a4.34 4.34 0 0 1 3.4-1.5c1.57.05 3 .88 4.01 1.83A6.37 6.37 0 0 1 28.5 14a4.34 4.34 0 0 1 3.4 1.5 4.41 4.41 0 0 1 1.05 3.65c-.35 2.55-2.52 5.18-6.11 7.38a.9.9 0 0 1-1.27-.32.95.95 0 0 1 .32-1.29c3.06-1.88 4.97-4.08 5.24-6.04a2.5 2.5 0 0 0-.58-2.1 2.5 2.5 0 0 0-2-.9 4.88 4.88 0 0 0-3.36 1.91.94.94 0 0 1-1.42 0 4.89 4.89 0 0 0-3.36-1.9 2.49 2.49 0 0 0-2 .9c-.5.55-.68 1.33-.51 2.27.44 2.46 3.08 5.14 7.05 7.16.46.23.64.8.42 1.26a.92.92 0 0 1-.83.52z" fill="#A2C3D4"/>
        <path d="M16.85 26a.85.85 0 0 1-.74-.41.8.8 0 0 1 .32-1.11c.8-.43 1.55-.88 2.24-1.34a.87.87 0 0 1 1.18.21.8.8 0 0 1-.22 1.13c-.73.49-1.53.96-2.37 1.42a.87.87 0 0 1-.41.1z" fill="#44444D"/>
        <path d="M14.56 27a.92.92 0 0 1-.41-.1C7.33 23.5 2.95 19 2.13 14.5A6.13 6.13 0 0 1 8.32 7c2.44.07 4.66 1.45 6.15 2.93 1.48-1.48 3.7-2.86 6.14-2.93 1.84-.06 3.5.67 4.82 2.1A6.07 6.07 0 0 1 27 13.54a.92.92 0 1 1-1.84-.07 4.26 4.26 0 0 0-1.08-3.13 4.34 4.34 0 0 0-3.41-1.5c-1.86.05-4.02 1.24-5.5 3.03a.95.95 0 0 1-1.41 0c-1.48-1.79-3.64-2.98-5.5-3.03a4.35 4.35 0 0 0-3.41 1.5c-.87.93-1.19 2.3-.91 3.83.7 3.84 4.82 7.98 11.03 11.07a.92.92 0 0 1-.41 1.75z" fill="#44444D"/>
        <path d="M22.54 27a.9.9 0 0 1-.4-.1c-4.56-2.3-7.5-5.41-8.05-8.5-.27-1.52.08-2.9.98-3.9a4.34 4.34 0 0 1 3.4-1.5c1.57.05 3 .88 4.01 1.83A6.37 6.37 0 0 1 26.5 13a4.34 4.34 0 0 1 3.4 1.5 4.41 4.41 0 0 1 1.05 3.65c-.35 2.55-2.52 5.18-6.11 7.38a.9.9 0 0 1-1.27-.32.95.95 0 0 1 .32-1.29c3.06-1.88 4.97-4.08 5.24-6.04a2.5 2.5 0 0 0-.58-2.1 2.5 2.5 0 0 0-2-.9 4.88 4.88 0 0 0-3.36 1.91.94.94 0 0 1-1.42 0 4.89 4.89 0 0 0-3.36-1.9 2.49 2.49 0 0 0-2 .9c-.5.55-.68 1.33-.51 2.27.44 2.46 3.08 5.14 7.05 7.16.46.23.64.8.42 1.26a.92.92 0 0 1-.83.52z" fill="#44444D"/>
    </g>
</svg>