<svg width="24" height="35" xmlns="http://www.w3.org/2000/svg">
    <g fill-rule="nonzero" fill="none">
        <path d="M11.045 18.29c-2.566 0-5.164-1.546-5.164-4.503 0-1.142-.195-1.662-.548-2.606l-.081-.217c-.457-1.224-.383-2.362.209-3.204.57-.81 1.542-1.257 2.739-1.257.862 0 1.825.24 2.785.693 2.544 1.202 5.258 2.797 5.258 6.54 0 2.99-2.615 4.554-5.198 4.554zM8.2 8.38c-.56 0-.98.161-1.185.454-.228.323-.223.849.012 1.48l.08.214c.373.995.668 1.78.668 3.26 0 2.073 2.055 2.626 3.27 2.626 1.228 0 3.304-.564 3.304-2.677 0-2.414-1.468-3.565-4.179-4.845-.707-.335-1.388-.511-1.97-.511z" fill="#A2C3D4"/>
        <path d="M14.983 18.362a6.153 6.153 0 0 1-2.39-.495.936.936 0 0 1-.5-1.231.95.95 0 0 1 1.242-.496c1.206.509 2.543.44 3.49-.18.742-.487 1.151-1.259 1.151-2.173 0-1.377.259-2.103.586-3.021l.086-.241c.282-.802.182-1.476-.274-1.848-.61-.5-1.72-.407-2.83.235a.951.951 0 0 1-1.295-.338.934.934 0 0 1 .341-1.283c1.829-1.059 3.741-1.083 4.989-.063 1.087.889 1.407 2.353.857 3.916l-.088.247c-.308.865-.478 1.341-.478 2.396 0 1.543-.73 2.905-2 3.74a5.245 5.245 0 0 1-2.887.835zM15.645 6.325a.948.948 0 0 1-.833-.491c-.304-.555-1.048-.94-1.85-.956-.48-.009-1.356.105-1.891.99a.95.95 0 0 1-1.298.323.935.935 0 0 1-.326-1.288c.74-1.223 2.065-1.927 3.555-1.902 1.483.031 2.847.791 3.474 1.937a.934.934 0 0 1-.38 1.273.941.941 0 0 1-.451.114zM12.677 32.335a.943.943 0 0 1-.948-.939V19.731c0-.519.425-.94.948-.94.523 0 .946.421.946.94v11.665a.942.942 0 0 1-.946.939zM17.66 26.197c-1.38 0-2.55-.698-3.296-1.967a.93.93 0 0 1-.12-.599c.436-3.203 2.903-4.637 5.156-4.637 1.104 0 2.177.323 3.103.932a.936.936 0 0 1 .41.623c.203 1.173-.218 2.478-1.156 3.581-1.084 1.275-2.654 2.067-4.098 2.067zm-1.483-2.645c.385.516.873.767 1.482.767.887 0 1.927-.549 2.65-1.398.458-.54.722-1.125.757-1.656a3.722 3.722 0 0 0-1.666-.393c-1.256 0-2.809.71-3.223 2.68zM7.919 30.4c-1.344 0-2.803-.733-3.807-1.915-.866-1.018-1.254-2.224-1.066-3.309a.94.94 0 0 1 .41-.623 5.204 5.204 0 0 1 2.868-.859c2.092 0 4.383 1.324 4.785 4.282a.93.93 0 0 1-.12.598c-.694 1.178-1.784 1.827-3.07 1.827zM4.9 25.894c.046.444.274.93.66 1.382.644.758 1.57 1.247 2.359 1.247.512 0 .925-.205 1.254-.628-.378-1.706-1.743-2.322-2.85-2.322-.495 0-.98.11-1.423.321z" fill="#A2C3D4"/>
        <path d="M9.046 17.29c-2.567 0-5.165-1.546-5.165-4.503 0-1.142-.194-1.662-.548-2.606l-.081-.217C2.795 8.74 2.87 7.602 3.46 6.76c.57-.81 1.542-1.257 2.739-1.257.862 0 1.826.24 2.786.693 2.544 1.202 5.257 2.797 5.257 6.54 0 2.99-2.614 4.554-5.197 4.554zM6.2 7.38c-.56 0-.98.161-1.185.454-.227.323-.223.849.012 1.48l.08.214c.373.995.668 1.78.668 3.26 0 2.073 2.056 2.626 3.27 2.626 1.228 0 3.304-.564 3.304-2.677 0-2.414-1.468-3.565-4.178-4.845-.708-.335-1.39-.511-1.971-.511z" fill="#44444D"/>
        <path d="M12.983 17.362a6.153 6.153 0 0 1-2.39-.495.936.936 0 0 1-.5-1.231.95.95 0 0 1 1.242-.496c1.206.509 2.543.44 3.49-.18.742-.487 1.151-1.259 1.151-2.173 0-1.377.259-2.103.586-3.021l.086-.241c.283-.802.182-1.476-.274-1.848-.609-.5-1.72-.407-2.83.235a.951.951 0 0 1-1.295-.338.934.934 0 0 1 .341-1.283c1.829-1.059 3.741-1.083 4.989-.063 1.087.889 1.408 2.353.857 3.916l-.088.247c-.308.865-.478 1.341-.478 2.396 0 1.543-.73 2.905-2 3.74a5.245 5.245 0 0 1-2.887.835zM13.645 5.325a.948.948 0 0 1-.833-.491c-.304-.555-1.048-.94-1.85-.956-.48-.009-1.355.105-1.89.99a.95.95 0 0 1-1.3.323.935.935 0 0 1-.325-1.288C8.187 2.68 9.512 1.976 11.002 2c1.484.031 2.847.791 3.474 1.937a.934.934 0 0 1-.38 1.273.941.941 0 0 1-.451.114zM10.677 31.335a.943.943 0 0 1-.947-.939V18.731c0-.519.424-.94.947-.94.523 0 .946.421.946.94v11.665a.942.942 0 0 1-.946.939zM15.66 25.197c-1.38 0-2.55-.698-3.296-1.967a.93.93 0 0 1-.12-.599c.436-3.203 2.904-4.637 5.156-4.637 1.104 0 2.177.323 3.103.932a.936.936 0 0 1 .41.623c.203 1.173-.218 2.478-1.156 3.581-1.084 1.275-2.654 2.067-4.098 2.067zm-1.483-2.645c.385.516.873.767 1.482.767.887 0 1.927-.549 2.65-1.398.459-.54.722-1.125.757-1.656a3.722 3.722 0 0 0-1.666-.393c-1.256 0-2.809.71-3.223 2.68zM5.919 29.4c-1.344 0-2.803-.733-3.807-1.915-.865-1.018-1.254-2.224-1.065-3.309a.94.94 0 0 1 .41-.623 5.204 5.204 0 0 1 2.867-.859c2.092 0 4.384 1.324 4.785 4.282a.93.93 0 0 1-.12.598c-.694 1.178-1.784 1.827-3.07 1.827zM2.9 24.894c.046.444.274.93.66 1.382.644.758 1.57 1.247 2.359 1.247.512 0 .925-.205 1.254-.628-.378-1.706-1.743-2.322-2.85-2.322-.494 0-.979.11-1.423.321z" fill="#44444D"/>
    </g>
</svg>