<svg width="33" height="35" xmlns="http://www.w3.org/2000/svg">
    <g fill-rule="nonzero" fill="none">
        <path d="M12.64 27.76A9.77 9.77 0 0 1 3 17.88 9.77 9.77 0 0 1 12.64 8c2.64 0 5.2 1.14 7.02 3.12.35.38.33.98-.04 1.34a.9.9 0 0 1-1.3-.05 7.63 7.63 0 0 0-5.68-2.52 7.9 7.9 0 0 0-7.8 8 7.9 7.9 0 0 0 7.8 7.98 7.9 7.9 0 0 0 7.78-7.99c0-1.3-.3-2.58-.89-3.72a.96.96 0 0 1 .39-1.28.91.91 0 0 1 1.24.4c.73 1.4 1.11 3 1.11 4.6a9.77 9.77 0 0 1-9.63 9.88z" fill="#A2C3D4"/>
        <path d="M23.03 27.76a8.7 8.7 0 0 1-5.61-2.06.96.96 0 0 1-.13-1.33.9.9 0 0 1 1.3-.13 6.88 6.88 0 0 0 4.44 1.63c3.84 0 6.97-3.2 6.97-7.15a7.07 7.07 0 0 0-6.97-7.15 7.07 7.07 0 0 0-6.97 7.15c0 1.36.37 2.68 1.08 3.82a.96.96 0 0 1-.29 1.31.9.9 0 0 1-1.27-.3 9.2 9.2 0 0 1-1.37-4.83 8.94 8.94 0 0 1 8.82-9.04 8.94 8.94 0 0 1 8.82 9.04 8.94 8.94 0 0 1-8.82 9.04z" fill="#A2C3D4"/>
        <g fill="#44444D">
            <path d="M10.64 26.76A9.77 9.77 0 0 1 1 16.88 9.77 9.77 0 0 1 10.64 7a9.56 9.56 0 0 1 7.02 3.12c.35.38.33.98-.04 1.34a.9.9 0 0 1-1.3-.05 7.63 7.63 0 0 0-5.68-2.52 7.9 7.9 0 0 0-7.8 8 7.9 7.9 0 0 0 7.8 7.98 7.9 7.9 0 0 0 7.78-7.99c0-1.3-.3-2.58-.89-3.72a.96.96 0 0 1 .39-1.28.91.91 0 0 1 1.24.4c.73 1.4 1.11 3 1.11 4.6a9.77 9.77 0 0 1-9.63 9.88z"/>
            <path d="M21.03 26.76a8.7 8.7 0 0 1-5.61-2.06.96.96 0 0 1-.13-1.33.9.9 0 0 1 1.3-.13 6.88 6.88 0 0 0 4.44 1.63c3.84 0 6.97-3.2 6.97-7.15a7.07 7.07 0 0 0-6.97-7.15 7.07 7.07 0 0 0-6.97 7.15c0 1.36.37 2.68 1.08 3.82a.96.96 0 0 1-.29 1.31.9.9 0 0 1-1.27-.3 9.2 9.2 0 0 1-1.37-4.83 8.94 8.94 0 0 1 8.82-9.04 8.94 8.94 0 0 1 8.82 9.04 8.94 8.94 0 0 1-8.82 9.04z"/>
        </g>
    </g>
</svg>