<svg width="31" height="35" xmlns="http://www.w3.org/2000/svg">
    <g fill-rule="nonzero" fill="none">
        <path d="M28.07 20a.93.93 0 0 1-.94-.91c0-5.5-4.92-10.16-10.74-10.16S5.65 13.58 5.65 19.1c0 .5-.42.92-.94.92a.93.93 0 0 1-.94-.92c0-6.5 5.78-12 12.62-12 6.84 0 12.62 5.5 12.62 12 0 .5-.42.92-.94.92z" fill="#A2C3D4"/>
        <path d="M9.3 15.78a.95.95 0 0 1-.51-.16.91.91 0 0 1-.27-1.28 9.45 9.45 0 0 1 10.53-3.77c.5.15.79.66.64 1.15a.94.94 0 0 1-1.17.62 7.56 7.56 0 0 0-8.43 3.02.94.94 0 0 1-.78.42zM28.84 22.44H3.94a.93.93 0 0 1-.94-.92c0-.51.42-.92.94-.92h24.9c.52 0 .94.4.94.92 0 .5-.42.92-.94.92zM18.3 6.72a.93.93 0 0 1-.94-.92.96.96 0 0 0-.97-.95.96.96 0 0 0-.97.95c0 .5-.42.92-.94.92a.93.93 0 0 1-.94-.92c0-1.55 1.28-2.8 2.85-2.8a2.83 2.83 0 0 1 2.85 2.8c0 .5-.42.92-.94.92z" fill="#A2C3D4"/>
        <path d="M23.64 31.85c-8.23 0-13.46-3.5-15.1-10.11-.13-.5.18-1 .68-1.12a.94.94 0 0 1 1.14.68c1.4 5.57 5.6 8.49 12.5 8.69l.72-3.75c-2.81-.97-4.83-3.2-5.11-4.54-.1-.5.23-.99.74-1.09.5-.1 1 .23 1.1.73.15.7 1.92 2.73 4.57 3.36.49.11.8.58.7 1.06l-1.02 5.33a.94.94 0 0 1-.92.76z" fill="#A2C3D4"/>
        <path d="M17.42 27.13c-2.14 0-5.36-1.95-7.07-5.19a.91.91 0 0 1 .4-1.24.95.95 0 0 1 1.27.4c1.44 2.72 4.06 4.18 5.4 4.18.53 0 .65-.22.7-.3a.95.95 0 0 1 1.26-.4c.46.24.64.8.4 1.25-.44.84-1.28 1.3-2.36 1.3zM25.86 31.58a.95.95 0 0 1-.62-.22.91.91 0 0 1-.09-1.3c1.2-1.36 1.93-2.5 2.1-4.26l-1.64-.18-.03.14c-.1.5-.58.83-1.1.74a.93.93 0 0 1-.75-1.08l.2-.98c.08-.47.53-.8 1.02-.75l3.37.37c.48.05.84.45.84.92 0 2.81-.99 4.5-2.6 6.29a.95.95 0 0 1-.7.31z" fill="#A2C3D4"/>
        <g fill="#44444D">
            <path d="M26.07 19a.93.93 0 0 1-.94-.91c0-5.5-4.92-10.16-10.74-10.16S3.65 12.58 3.65 18.1c0 .5-.42.92-.94.92a.93.93 0 0 1-.94-.92c0-6.5 5.78-12 12.62-12 6.84 0 12.62 5.5 12.62 12 0 .5-.42.92-.94.92z"/>
            <path d="M7.3 14.78a.95.95 0 0 1-.51-.16.91.91 0 0 1-.27-1.28 9.45 9.45 0 0 1 10.53-3.77c.5.15.79.66.64 1.15a.94.94 0 0 1-1.17.62 7.56 7.56 0 0 0-8.43 3.02.94.94 0 0 1-.78.42zM26.84 21.44H1.94a.93.93 0 0 1-.94-.92c0-.51.42-.92.94-.92h24.9c.52 0 .94.4.94.92 0 .5-.42.92-.94.92zM16.3 5.72a.93.93 0 0 1-.94-.92.96.96 0 0 0-.97-.95.96.96 0 0 0-.97.94c0 .52-.42.93-.94.93a.93.93 0 0 1-.94-.92c0-1.55 1.28-2.8 2.85-2.8a2.83 2.83 0 0 1 2.85 2.8c0 .5-.42.92-.94.92z"/>
            <path d="M21.64 30.85c-8.23 0-13.46-3.5-15.1-10.11-.13-.5.18-1 .68-1.12a.94.94 0 0 1 1.14.68c1.4 5.57 5.6 8.49 12.5 8.69l.72-3.75c-2.81-.97-4.83-3.2-5.11-4.54-.1-.5.23-.99.74-1.09.5-.1 1 .23 1.1.73.15.7 1.92 2.73 4.57 3.36.49.11.8.58.7 1.06l-1.02 5.33a.94.94 0 0 1-.92.76z"/>
            <path d="M15.42 26.13c-2.13 0-5.36-1.95-7.07-5.19a.91.91 0 0 1 .4-1.24.95.95 0 0 1 1.27.4c1.44 2.72 4.06 4.18 5.4 4.18.53 0 .65-.22.7-.3a.95.95 0 0 1 1.26-.4c.46.24.64.8.4 1.25-.44.84-1.28 1.3-2.36 1.3zM23.86 30.58a.95.95 0 0 1-.62-.22.91.91 0 0 1-.09-1.3c1.2-1.36 1.93-2.5 2.1-4.26l-1.64-.18-.03.14c-.1.5-.58.83-1.1.74a.93.93 0 0 1-.75-1.08l.2-.98c.08-.47.53-.8 1.02-.75l3.37.37c.48.05.84.45.84.92 0 2.81-.99 4.5-2.6 6.29a.95.95 0 0 1-.7.31z"/>
        </g>
    </g>
</svg>