<svg width="33" height="35" xmlns="http://www.w3.org/2000/svg">
    <g fill-rule="nonzero" fill="none">
        <path d="M18.588 26.417c-4.734 0-8.585-3.851-8.585-8.585 0-4.735 3.851-8.586 8.585-8.586 4.734 0 8.586 3.851 8.586 8.586 0 4.734-3.852 8.585-8.586 8.585zm0-15.325a6.748 6.748 0 0 0-6.74 6.74 6.747 6.747 0 0 0 6.74 6.74 6.747 6.747 0 0 0 6.74-6.74 6.747 6.747 0 0 0-6.74-6.74z" fill="#A2C3D4"/>
        <path d="M16.07 21.273a.923.923 0 0 1-.652-.27 4.453 4.453 0 0 1-1.315-3.172c0-1.198.466-2.324 1.313-3.171a4.494 4.494 0 0 1 6.344 0 .923.923 0 0 1-1.304 1.305 2.644 2.644 0 0 0-3.734 0 2.619 2.619 0 0 0-.773 1.866c0 .705.275 1.367.774 1.864a.923.923 0 0 1-.653 1.578zM6.289 26.663a.923.923 0 0 1-.923-.923V9.923a.922.922 0 1 1 1.846 0V25.74c0 .51-.414.923-.923.923z" fill="#A2C3D4"/>
        <path d="M7.629 16.291h-2.68c-.728 0-1.95-.305-1.95-2.35V9.922a.923.923 0 0 1 1.847 0v4.018c0 .29.025.434.044.502a.615.615 0 0 0 .058.003h2.68a.619.619 0 0 0 .06-.003c.018-.068.043-.213.043-.503V9.923a.925.925 0 0 1 1.847 0v4.017c0 2.046-1.221 2.351-1.95 2.351zM30.923 26.663A.923.923 0 0 1 30 25.74v-7.054a.923.923 0 0 1-1.335-.827v-5.856c0-1.993.76-3.003 2.258-3.003.51 0 .923.413.923.923V25.74c0 .51-.414.923-.923.923z" fill="#A2C3D4"/>
        <g fill="#44444D">
            <path d="M16.588 25.417c-4.733 0-8.585-3.851-8.585-8.585 0-4.735 3.852-8.586 8.585-8.586 4.735 0 8.586 3.851 8.586 8.586 0 4.734-3.851 8.585-8.586 8.585zm0-15.325a6.748 6.748 0 0 0-6.739 6.74 6.747 6.747 0 0 0 6.739 6.74 6.747 6.747 0 0 0 6.74-6.74 6.747 6.747 0 0 0-6.74-6.74z"/>
            <path d="M14.07 20.273a.923.923 0 0 1-.652-.27 4.453 4.453 0 0 1-1.315-3.172c0-1.198.466-2.324 1.313-3.171a4.494 4.494 0 0 1 6.345 0 .923.923 0 0 1-1.305 1.305 2.644 2.644 0 0 0-3.734 0 2.619 2.619 0 0 0-.772 1.866c0 .705.274 1.367.773 1.864a.923.923 0 0 1-.653 1.578zM4.289 25.663a.923.923 0 0 1-.923-.923V8.923a.922.922 0 1 1 1.846 0V24.74c0 .51-.413.923-.923.923z"/>
            <path d="M5.629 15.291h-2.68c-.728 0-1.949-.305-1.949-2.35V8.922a.923.923 0 0 1 1.846 0v4.018c0 .29.025.434.044.502a.615.615 0 0 0 .058.003h2.68a.619.619 0 0 0 .06-.003c.018-.068.043-.213.043-.503V8.923a.925.925 0 0 1 1.847 0v4.017c0 2.046-1.221 2.351-1.949 2.351zM28.923 25.663A.923.923 0 0 1 28 24.74v-7.054a.923.923 0 0 1-1.335-.827v-5.856c0-1.993.76-3.003 2.258-3.003.51 0 .924.413.924.923V24.74c-.001.51-.415.923-.924.923z"/>
        </g>
    </g>
</svg>