<svg width="22" height="16" xmlns="http://www.w3.org/2000/svg">
    <path d="M11.004 4.867c.416-1.308 1.052-2.3 1.907-2.977S14.803.875 16.02.875c1.443 0 2.603.44 3.48 1.321.877.881 1.316 2.047 1.316 3.496 0 1.271-.305 2.294-.915 3.067-.61.773-1.78 1.524-3.512 2.252l-.223.1c-2.84 1.197-4.56 2.535-5.163 4.015-.617-1.487-2.334-2.825-5.152-4.014a6.117 6.117 0 0 0-.245-.1c-1.74-.73-2.912-1.476-3.518-2.242-.606-.766-.909-1.792-.909-3.078 0-1.45.44-2.615 1.321-3.496.881-.88 2.04-1.321 3.474-1.321 1.226 0 2.265.338 3.117 1.015.85.676 1.488 1.669 1.912 2.977z" fill="#153048" fill-rule="nonzero"/>
</svg>