<svg width="33" height="35" xmlns="http://www.w3.org/2000/svg">
    <g fill-rule="nonzero" fill="none">
        <path d="M16.017 29.654c-1.793 0-3.529-.507-4.987-1.488a7.995 7.995 0 0 1-3.44-5.21c-2.684-1.06-4.338-2.553-4.565-4.145-.121-.845.2-1.635.86-2.113.848-.613 2.082-.617 3.303-.012a.924.924 0 0 1-.82 1.654c-.657-.325-1.177-.309-1.401-.146-.041.03-.15.109-.115.356.103.72 1.18 1.9 3.878 2.862.33.117.564.411.606.76a6.194 6.194 0 0 0 2.724 4.463c1.71 1.15 3.917 1.473 6.055.888 3.04-.831 4.081-2.942 5.399-5.614.952-1.93 2.031-4.118 4.065-6.011a.929.929 0 0 1 .1-.082l1.19-.83-1.444-.467a.922.922 0 0 1-.637-.814c-.156-2.231-1.377-3.734-3.267-4.02-1.721-.26-4.014.62-5.002 3.167a.923.923 0 0 1-1.72-.667c1.16-2.994 4.041-4.773 6.998-4.325 2.04.309 4.293 1.811 4.766 5.087l2.643.853a.924.924 0 0 1 .244 1.635l-2.66 1.857c-1.756 1.653-2.704 3.575-3.62 5.434-1.402 2.843-2.726 5.527-6.568 6.577a9.798 9.798 0 0 1-2.585.351z" fill="#A2C3D4"/>
        <path d="M15.134 21.827c-2.436 0-4.708-1.275-5.892-2.773-.776-.982-1.105-2.06-.959-3.072-.963-.474-1.4-1.171-1.598-1.73a3.171 3.171 0 0 1 .006-2.067A3.391 3.391 0 0 1 5.663 9.47c.083-1.107.682-2.049 1.527-2.399a.924.924 0 0 1 .788.039c1.958 1.046 3.817 1.764 5.457 2.397 3.363 1.298 6.019 2.323 6.91 5.21a.923.923 0 1 1-1.765.545c-.626-2.032-2.688-2.828-5.81-4.033-1.536-.593-3.258-1.258-5.105-2.2a1.436 1.436 0 0 0-.162.579c-.022.295.014 1.035.829 1.527a.92.92 0 0 1 .265 1.339c-.196.266-.319.75-.173 1.162.148.418.558.717 1.219.887a.92.92 0 0 1 .6 1.296c-.399.822.11 1.663.447 2.091 1.035 1.31 3.315 2.441 5.502 1.957a.923.923 0 0 1 .398 1.802 6.653 6.653 0 0 1-1.456.16zM23.645 13.582a1.258 1.258 0 0 1-1.25-1.25c0-.33.135-.655.365-.885.465-.465 1.304-.465 1.77 0 .235.23.364.555.364.885 0 .325-.13.65-.364.88-.235.235-.555.37-.885.37z" fill="#A2C3D4"/>
        <path d="M14.018 28.654c-1.794 0-3.53-.507-4.988-1.488a7.995 7.995 0 0 1-3.44-5.21c-2.684-1.06-4.338-2.553-4.565-4.145-.12-.845.2-1.635.86-2.113.848-.613 2.083-.617 3.304-.012a.924.924 0 0 1-.82 1.654c-.657-.325-1.178-.309-1.402-.146-.04.03-.15.109-.115.356.103.72 1.18 1.9 3.878 2.862.33.117.565.411.607.76a6.194 6.194 0 0 0 2.723 4.463c1.71 1.15 3.918 1.473 6.055.888 3.04-.831 4.081-2.942 5.4-5.614.951-1.93 2.03-4.118 4.064-6.011a.929.929 0 0 1 .1-.082l1.19-.83-1.444-.467a.922.922 0 0 1-.637-.814c-.155-2.231-1.377-3.734-3.267-4.02-1.72-.26-4.013.62-5.002 3.167a.923.923 0 0 1-1.72-.667c1.16-2.994 4.041-4.773 6.998-4.325 2.04.309 4.294 1.811 4.766 5.087l2.643.853a.924.924 0 0 1 .245 1.635l-2.66 1.857c-1.756 1.653-2.704 3.575-3.62 5.434-1.403 2.843-2.727 5.527-6.568 6.577a9.798 9.798 0 0 1-2.585.351z" fill="#44444D"/>
        <path d="M13.135 20.827c-2.436 0-4.709-1.275-5.892-2.773-.777-.982-1.105-2.06-.96-3.072-.962-.474-1.4-1.171-1.598-1.73a3.171 3.171 0 0 1 .007-2.067A3.391 3.391 0 0 1 3.663 8.47c.084-1.107.683-2.049 1.527-2.399a.924.924 0 0 1 .788.039c1.959 1.046 3.818 1.764 5.458 2.397 3.363 1.298 6.018 2.323 6.909 5.21a.923.923 0 1 1-1.764.545c-.627-2.032-2.689-2.828-5.81-4.033-1.536-.593-3.259-1.258-5.105-2.2a1.436 1.436 0 0 0-.162.579c-.022.295.014 1.035.828 1.527a.92.92 0 0 1 .266 1.339c-.197.266-.32.75-.174 1.162.149.418.558.717 1.22.887a.92.92 0 0 1 .6 1.296c-.4.822.109 1.663.447 2.091 1.035 1.31 3.315 2.441 5.502 1.957a.923.923 0 0 1 .398 1.802 6.653 6.653 0 0 1-1.456.16zM21.645 12.582a1.258 1.258 0 0 1-1.25-1.25c0-.33.136-.655.365-.885.465-.465 1.305-.465 1.77 0 .235.23.365.555.365.885a1.258 1.258 0 0 1-1.25 1.25z" fill="#44444D"/>
    </g>
</svg>