<svg width="33" height="35" xmlns="http://www.w3.org/2000/svg">
    <g fill-rule="nonzero" fill="none">
        <path d="M10.307 21.582A4.56 4.56 0 0 1 8.77 21.3c-1.322-.474-2.248-1.403-2.677-2.686-1.469-4.39 3.15-11.84 3.682-12.675a.914.914 0 0 1 1.08-.376l5.934 2.124c.481.172.734.71.565 1.2a.919.919 0 0 1-1.176.576L10.94 7.589c-1.45 2.459-4.014 7.69-3.1 10.418.25.749.74 1.23 1.54 1.518.753.268 1.42.223 2.038-.143 1.609-.953 3-4.098 3.815-8.63a.925.925 0 0 1 1.074-.756.94.94 0 0 1 .741 1.095c-.655 3.643-2.003 8.32-4.704 9.918a3.95 3.95 0 0 1-2.038.573z" fill="#A2C3D4"/>
        <path d="M7.555 25.77a.891.891 0 0 1-.305-.054.945.945 0 0 1-.566-1.2l1.52-4.416a.918.918 0 0 1 1.178-.576c.48.172.734.71.565 1.2l-1.52 4.416a.925.925 0 0 1-.872.63zM9.583 29.111a.891.891 0 0 1-.305-.053l-5.66-2.026a.946.946 0 0 1-.566-1.2.919.919 0 0 1 1.177-.576l5.66 2.026c.481.172.734.71.565 1.2a.925.925 0 0 1-.87.63zM13.581 12.96H7.77a.933.933 0 0 1-.924-.94c0-.52.414-.942.924-.942h5.812c.51 0 .923.422.923.941 0 .52-.413.942-.923.942zM24.547 23.246a4.005 4.005 0 0 1-2.208-.667c-3.838-2.49-4.8-11.249-4.897-12.24a.941.941 0 0 1 .612-.981l5.935-2.125a.919.919 0 0 1 1.177.576.946.946 0 0 1-.565 1.2l-5.237 1.875c.376 2.843 1.581 8.561 3.967 10.109.655.424 1.332.487 2.133.2.754-.268 1.245-.73 1.503-1.408.673-1.77-.17-5.111-2.313-9.168a.95.95 0 0 1 .374-1.276.914.914 0 0 1 1.25.383c1.723 3.26 3.538 7.77 2.41 10.74-.458 1.206-1.337 2.05-2.613 2.506a4.525 4.525 0 0 1-1.528.276z" fill="#A2C3D4"/>
        <path d="M27.299 27.463a.924.924 0 0 1-.871-.63l-1.53-4.44a.946.946 0 0 1 .566-1.2.918.918 0 0 1 1.177.577l1.529 4.44a.946.946 0 0 1-.565 1.2.936.936 0 0 1-.306.053zM25.262 30.78a.924.924 0 0 1-.871-.63.946.946 0 0 1 .565-1.2l5.661-2.025a.917.917 0 0 1 1.177.576.945.945 0 0 1-.565 1.2l-5.661 2.026a.919.919 0 0 1-.306.053zM27.077 14.63h-5.799a.933.933 0 0 1-.923-.941c0-.52.413-.942.923-.942h5.8c.51 0 .923.422.923.942s-.414.94-.924.94z" fill="#A2C3D4"/>
        <g fill="#44444D">
            <path d="M8.308 20.582A4.56 4.56 0 0 1 6.77 20.3c-1.323-.474-2.248-1.403-2.677-2.686-1.47-4.39 3.15-11.84 3.681-12.675a.914.914 0 0 1 1.08-.376l5.934 2.124c.482.172.735.71.566 1.2a.919.919 0 0 1-1.177.576L8.941 6.589c-1.449 2.459-4.014 7.69-3.1 10.418.25.749.74 1.23 1.541 1.518.752.268 1.42.223 2.037-.143 1.609-.953 3-4.098 3.815-8.63a.925.925 0 0 1 1.075-.756.94.94 0 0 1 .74 1.095c-.655 3.643-2.003 8.32-4.704 9.918a3.95 3.95 0 0 1-2.038.573z"/>
            <path d="M5.556 24.77a.891.891 0 0 1-.306-.054.945.945 0 0 1-.566-1.2L6.205 19.1a.918.918 0 0 1 1.177-.576c.481.172.734.71.565 1.2l-1.52 4.416a.925.925 0 0 1-.871.63zM7.583 28.111a.891.891 0 0 1-.305-.053l-5.66-2.026a.946.946 0 0 1-.566-1.2.919.919 0 0 1 1.177-.576l5.66 2.026c.481.172.734.71.566 1.2a.925.925 0 0 1-.872.63zM11.582 11.96H5.769a.933.933 0 0 1-.924-.94c0-.52.414-.942.924-.942h5.813c.51 0 .922.422.922.941 0 .52-.412.942-.922.942z"/>
            <g>
                <path d="M22.547 22.246a4.005 4.005 0 0 1-2.208-.667c-3.837-2.49-4.8-11.249-4.897-12.24a.941.941 0 0 1 .613-.981l5.934-2.125a.919.919 0 0 1 1.177.576.946.946 0 0 1-.565 1.2l-5.236 1.875c.375 2.843 1.58 8.561 3.966 10.109.655.424 1.332.487 2.133.2.754-.268 1.245-.73 1.503-1.408.673-1.77-.17-5.111-2.313-9.168a.95.95 0 0 1 .374-1.276.914.914 0 0 1 1.251.383c1.722 3.26 3.537 7.77 2.409 10.74-.458 1.206-1.337 2.05-2.613 2.506a4.525 4.525 0 0 1-1.528.276z"/>
                <path d="M25.299 26.463a.924.924 0 0 1-.871-.63l-1.529-4.44a.946.946 0 0 1 .565-1.2.918.918 0 0 1 1.177.577l1.529 4.44a.946.946 0 0 1-.565 1.2.936.936 0 0 1-.306.053zM23.262 29.78a.924.924 0 0 1-.871-.63.946.946 0 0 1 .566-1.2l5.66-2.025a.917.917 0 0 1 1.177.576.945.945 0 0 1-.565 1.2l-5.661 2.026a.919.919 0 0 1-.306.053zM25.078 13.63h-5.8a.933.933 0 0 1-.923-.941c0-.52.413-.942.924-.942h5.799c.51 0 .923.422.923.942s-.414.94-.924.94z"/>
            </g>
        </g>
    </g>
</svg>