<svg width="33" height="35" xmlns="http://www.w3.org/2000/svg">
    <g fill-rule="nonzero" fill="none">
        <path d="M13.188 26.716c-5.073 0-9.415-4.411-10.099-10.26-.385-3.3.485-6.563 2.386-8.956 1.558-1.96 3.702-3.184 6.036-3.446A8.59 8.59 0 0 1 12.466 4c5.075 0 9.417 4.412 10.1 10.261.386 3.298-.482 6.562-2.383 8.954-1.558 1.962-3.703 3.186-6.037 3.448a8.633 8.633 0 0 1-.958.053zm-.722-20.87c-.249 0-.501.014-.75.042-1.842.207-3.546 1.188-4.796 2.761-1.598 2.01-2.326 4.778-1.998 7.593.576 4.918 4.13 8.628 8.267 8.628.249 0 .502-.014.75-.042 1.844-.207 3.547-1.187 4.798-2.761 1.597-2.01 2.325-4.777 1.995-7.591-.574-4.92-4.128-8.63-8.266-8.63zM16.438 32.846a.923.923 0 0 1-.712-1.51c.436-.53.644-1.196.556-1.782a1.656 1.656 0 0 0-.093-.354c-.628.39-1.428.514-1.741.549-.469.053-2.05.154-2.713-.764-.293-.407-.335-.911-.116-1.387a.921.921 0 0 1 1.224-.451.922.922 0 0 1 .533.75c.19.037.486.06.865.019.374-.042.655-.13.831-.207a.922.922 0 0 1 1.425-.89c.902.596 1.459 1.448 1.611 2.462.167 1.113-.183 2.29-.958 3.23a.92.92 0 0 1-.712.335z" fill="#A2C3D4"/>
        <path d="M22.786 26.308a7.538 7.538 0 0 1-2.033-.277.923.923 0 0 1 .494-1.779c.293.082.595.14.898.174 3.761.421 7.258-2.912 7.787-7.435.284-2.439-.345-4.836-1.729-6.577-1.078-1.357-2.546-2.203-4.132-2.381-1.487-.168-2.966.24-4.279 1.177a.923.923 0 1 1-1.072-1.503c1.69-1.206 3.612-1.728 5.556-1.51 2.079.234 3.987 1.323 5.372 3.068 1.686 2.122 2.458 5.016 2.117 7.94-.608 5.2-4.544 9.103-8.979 9.103zM22.067 29.375c-.224 0-.41-.015-.523-.029-.428-.047-1.852-.279-2.26-1.252-.188-.444-.117-.927.193-1.324a.922.922 0 0 1 1.65.602c.145.054.355.111.622.141.273.03.493.02.647-.002a.924.924 0 0 1 1.744-.212c.21.455.17.94-.112 1.33-.452.627-1.348.746-1.961.746z" fill="#A2C3D4"/>
        <g fill="#44444D">
            <path d="M11.188 25.716c-5.073 0-9.415-4.411-10.099-10.26-.384-3.3.485-6.563 2.386-8.955 1.558-1.962 3.701-3.186 6.036-3.448A8.59 8.59 0 0 1 10.466 3c5.075 0 9.417 4.412 10.1 10.261.386 3.298-.482 6.562-2.383 8.954-1.559 1.962-3.703 3.186-6.037 3.448a8.633 8.633 0 0 1-.958.053zm-.722-20.87c-.249 0-.501.014-.75.042-1.842.207-3.546 1.188-4.796 2.761-1.598 2.01-2.326 4.778-1.997 7.593.576 4.918 4.128 8.628 8.265 8.628.25 0 .503-.014.752-.042 1.843-.207 3.547-1.188 4.797-2.761 1.597-2.01 2.325-4.777 1.995-7.591-.574-4.92-4.128-8.63-8.266-8.63zM14.438 31.846a.923.923 0 0 1-.712-1.51c.436-.53.645-1.196.557-1.782a1.656 1.656 0 0 0-.093-.354c-.628.39-1.429.514-1.742.549-.469.053-2.05.154-2.713-.764-.293-.407-.335-.912-.116-1.387a.921.921 0 0 1 1.225-.451.922.922 0 0 1 .532.75c.19.037.487.06.866.019.373-.043.654-.13.83-.207a.922.922 0 0 1 1.425-.89c.902.596 1.459 1.448 1.611 2.462.167 1.113-.183 2.29-.958 3.23a.92.92 0 0 1-.713.335z"/>
            <g>
                <path d="M20.786 25.308a7.538 7.538 0 0 1-2.032-.277.923.923 0 0 1 .493-1.779c.293.082.595.14.899.174 3.76.421 7.257-2.912 7.786-7.435.284-2.439-.345-4.836-1.728-6.577-1.079-1.357-2.546-2.203-4.133-2.381-1.487-.167-2.966.24-4.278 1.177a.923.923 0 1 1-1.073-1.502c1.69-1.206 3.612-1.728 5.557-1.51 2.078.233 3.986 1.323 5.372 3.067 1.686 2.123 2.457 5.016 2.116 7.94-.607 5.2-4.543 9.103-8.979 9.103zM20.066 28.375c-.223 0-.409-.015-.523-.029-.427-.047-1.85-.279-2.26-1.252-.187-.444-.116-.927.194-1.324a.922.922 0 0 1 1.65.602c.144.054.354.111.622.141.272.03.493.02.647-.002a.924.924 0 0 1 1.744-.212c.21.455.17.94-.112 1.33-.453.627-1.348.746-1.962.746z"/>
            </g>
        </g>
    </g>
</svg>