<svg width="30" height="35" xmlns="http://www.w3.org/2000/svg">
    <g fill-rule="nonzero" fill="none">
        <path d="M26.07 14.3a.94.94 0 0 1-.92-.72 7.92 7.92 0 0 0-4.08-5.44.91.91 0 0 1-.39-1.25.95.95 0 0 1 1.28-.38 9.68 9.68 0 0 1 5.03 6.68.92.92 0 0 1-.92 1.12zM15.97 10.3a.95.95 0 0 1-.52-.16c-2.42-1.6-3.67-3.02-3.83-4.37-.08-.73.15-1.4.68-1.96.5-.53 1.13-.81 1.84-.81.69 0 1.33.27 1.83.63.51-.36 1.15-.63 1.84-.63.7 0 1.34.28 1.84.8.53.56.76 1.24.68 1.97-.16 1.35-1.41 2.78-3.83 4.37a.95.95 0 0 1-.53.15zm-1.83-5.45c-.12 0-.28.02-.46.21-.2.2-.2.37-.19.5.04.32.37 1.2 2.48 2.69 2.12-1.5 2.45-2.37 2.49-2.7.01-.12 0-.29-.19-.49-.18-.19-.34-.21-.46-.21-.34 0-.8.25-1.11.62a.99.99 0 0 1-1.45 0c-.31-.37-.77-.62-1.11-.62zM28 31.85H3.95a.93.93 0 0 1-.94-.93c0-.5.42-.92.94-.92h24.07c.52 0 .94.41.94.92s-.42.93-.94.93zM23.82 17.68c-.88 0-1.7-.3-2.38-.9-1.96-1.68-2.43-5.32-2.54-7.33a.93.93 0 0 1 .89-.97c.51-.03.96.36.99.87.15 2.9.87 5.16 1.9 6.05.38.33.8.46 1.28.43a.93.93 0 0 1 1.01.85c.04.5-.35.95-.87.99l-.28.01zM26.33 17.1a1.26 1.26 0 0 1-1.27-1.25c0-.34.13-.66.37-.9a1.34 1.34 0 0 1 1.8 0c.24.24.38.56.38.9a1.26 1.26 0 0 1-1.28 1.24zM5.88 14.3a.92.92 0 0 1-.92-1.12A9.68 9.68 0 0 1 10 6.52a.95.95 0 0 1 1.28.38c.24.45.07 1-.39 1.25a7.92 7.92 0 0 0-4.08 5.44.94.94 0 0 1-.92.73zM8.13 17.68l-.28-.01a.93.93 0 0 1-.87-.99c.04-.5.48-.9 1-.85.5.03.9-.1 1.29-.43 1.03-.9 1.75-3.16 1.9-6.05.03-.51.5-.9 1-.87.51.02.91.46.88.97-.1 2.01-.58 5.65-2.54 7.33-.68.6-1.5.9-2.38.9zM5.62 17.1a1.26 1.26 0 0 1-1.27-1.25c0-.34.13-.66.37-.9a1.34 1.34 0 0 1 1.8 0 1.26 1.26 0 0 1-.9 2.14zM25.66 20.07c-.3 0-.6-.14-.79-.42a.91.91 0 0 1 .28-1.27l1.34-.86a.95.95 0 0 1 1.3.27c.28.43.16 1-.28 1.28l-1.33.85a.95.95 0 0 1-.52.15zM25.66 22.72c-.3 0-.6-.15-.79-.42a.91.91 0 0 1 .28-1.28l1.34-.86a.95.95 0 0 1 1.3.27c.28.43.16 1-.28 1.28l-1.33.86a.95.95 0 0 1-.52.15zM25.66 25.36c-.3 0-.6-.15-.79-.42a.91.91 0 0 1 .28-1.27l1.33-.86a.95.95 0 0 1 1.3.27c.3.42.17 1-.27 1.28l-1.33.85a.95.95 0 0 1-.52.15zM25.66 28c-.3 0-.6-.14-.79-.41a.91.91 0 0 1 .28-1.28l1.34-.86a.95.95 0 0 1 1.3.27c.28.43.16 1-.28 1.28l-1.33.86a.95.95 0 0 1-.52.15z" fill="#A2C3D4"/>
        <path d="M26.33 31.85a.93.93 0 0 1-.94-.93v-1.6c0-.5.42-.92.94-.92s.94.41.94.92v1.6c0 .51-.42.93-.94.93zM6.28 20.07a.95.95 0 0 1-.51-.15l-1.34-.85a.91.91 0 0 1-.27-1.28.95.95 0 0 1 1.3-.27l1.34.86c.43.28.56.85.27 1.27a.94.94 0 0 1-.79.42zM6.28 22.72a.95.95 0 0 1-.51-.15l-1.34-.86a.91.91 0 0 1-.27-1.28.95.95 0 0 1 1.3-.27l1.34.86c.43.28.56.85.27 1.28a.94.94 0 0 1-.79.42zM6.28 25.36a.95.95 0 0 1-.51-.15l-1.34-.86a.91.91 0 0 1-.27-1.27.95.95 0 0 1 1.3-.27l1.34.86c.44.27.56.85.27 1.27a.95.95 0 0 1-.79.42zM6.28 28a.95.95 0 0 1-.51-.14L4.43 27a.91.91 0 0 1-.27-1.28.95.95 0 0 1 1.3-.27l1.34.86c.43.28.56.85.27 1.28a.94.94 0 0 1-.79.42zM5.62 31.85a.93.93 0 0 1-.94-.93v-1.6c0-.5.42-.92.94-.92s.94.41.94.92v1.6c0 .51-.42.93-.94.93zM15.97 31.85a.93.93 0 0 1-.94-.93v-3.54c0-.51.42-.92.94-.92s.95.41.95.92v3.54c0 .51-.43.93-.95.93zM15.97 25.84a.95.95 0 0 1-.35-.07l-3.15-1.26a.92.92 0 0 1-.58-.86v-4c0-.3.16-.6.42-.76.26-.18.59-.21.88-.1l3.14 1.27c.35.14.59.48.59.85v4c0 .31-.16.6-.42.77a.95.95 0 0 1-.53.16zm-2.2-2.8l1.26.5v-2l-1.26-.51v2z" fill="#A2C3D4"/>
        <path d="M15.97 25.84a.94.94 0 0 1-.87-.57.92.92 0 0 1 .52-1.2l2.56-1.04v-2l-1.85.74a.95.95 0 0 1-1.23-.5.92.92 0 0 1 .52-1.2l3.14-1.27a.96.96 0 0 1 .88.09c.26.17.42.45.42.76v4c0 .38-.23.72-.59.86l-3.14 1.26a.96.96 0 0 1-.36.07z" fill="#A2C3D4"/>
        <g fill="#44444D">
            <path d="M24.07 13.3a.94.94 0 0 1-.92-.72 7.92 7.92 0 0 0-4.08-5.44.91.91 0 0 1-.39-1.25.95.95 0 0 1 1.28-.38 9.68 9.68 0 0 1 5.03 6.68.92.92 0 0 1-.92 1.12zM13.97 9.3a.95.95 0 0 1-.52-.16c-2.42-1.6-3.67-3.02-3.83-4.37-.08-.73.15-1.4.68-1.96.5-.53 1.13-.81 1.84-.81.69 0 1.33.27 1.83.63.51-.36 1.15-.63 1.84-.63.7 0 1.34.28 1.84.8.53.56.76 1.24.68 1.97-.16 1.35-1.41 2.78-3.83 4.37a.95.95 0 0 1-.53.16zm-1.83-5.45c-.12 0-.28.02-.46.21-.2.2-.2.37-.19.5.04.32.37 1.2 2.48 2.69 2.12-1.5 2.45-2.37 2.49-2.7.01-.12 0-.29-.19-.49-.18-.19-.34-.21-.46-.21-.34 0-.8.25-1.11.62a.99.99 0 0 1-1.45 0c-.31-.37-.77-.62-1.11-.62zM26 30.85H1.95a.93.93 0 0 1-.94-.93c0-.5.42-.92.94-.92h24.07c.52 0 .94.41.94.92s-.42.93-.94.93zM21.82 16.68c-.88 0-1.7-.3-2.38-.9-1.96-1.68-2.43-5.31-2.54-7.33a.93.93 0 0 1 .89-.97c.51-.03.96.36.99.87.15 2.9.87 5.16 1.9 6.05.38.33.8.46 1.28.43a.93.93 0 0 1 1.01.85c.04.5-.35.95-.87.99l-.28.01zM24.33 16.1a1.26 1.26 0 0 1-1.27-1.25c0-.34.13-.66.37-.9a1.34 1.34 0 0 1 1.8 0c.24.24.38.56.38.9a1.26 1.26 0 0 1-1.28 1.24zM3.88 13.3a.92.92 0 0 1-.92-1.12A9.68 9.68 0 0 1 8 5.52a.95.95 0 0 1 1.28.38c.24.45.07 1-.39 1.25a7.92 7.92 0 0 0-4.08 5.44.94.94 0 0 1-.92.73zM6.13 16.68l-.28-.01a.93.93 0 0 1-.87-.99c.04-.5.48-.9 1-.85.5.03.9-.1 1.29-.43 1.03-.9 1.75-3.16 1.9-6.05.03-.51.5-.9 1-.87.51.02.91.46.88.97-.1 2.01-.58 5.65-2.54 7.33-.68.6-1.5.9-2.38.9zM3.62 16.1a1.26 1.26 0 0 1-1.27-1.25c0-.34.13-.66.37-.9a1.34 1.34 0 0 1 1.8 0 1.26 1.26 0 0 1-.9 2.14zM23.66 19.07c-.3 0-.6-.14-.79-.42a.91.91 0 0 1 .28-1.27l1.34-.86a.95.95 0 0 1 1.3.27c.28.43.16 1-.28 1.28l-1.33.85a.95.95 0 0 1-.52.15zM23.66 21.72c-.3 0-.6-.15-.79-.42a.91.91 0 0 1 .28-1.28l1.34-.86a.95.95 0 0 1 1.3.27c.28.43.16 1-.28 1.28l-1.33.86a.95.95 0 0 1-.52.15zM23.66 24.36c-.3 0-.6-.15-.79-.42a.91.91 0 0 1 .28-1.27l1.33-.86a.95.95 0 0 1 1.3.27c.3.42.17 1-.27 1.28l-1.33.85a.95.95 0 0 1-.52.15zM23.66 27c-.3 0-.6-.14-.79-.41a.91.91 0 0 1 .28-1.28l1.34-.86a.95.95 0 0 1 1.3.27c.28.43.16 1-.28 1.28l-1.33.86a.95.95 0 0 1-.52.15z"/>
            <path d="M24.33 30.85a.93.93 0 0 1-.94-.93v-1.6c0-.5.42-.92.94-.92s.94.41.94.92v1.6c0 .51-.42.93-.94.93zM4.28 19.07a.95.95 0 0 1-.51-.15l-1.34-.85a.91.91 0 0 1-.27-1.28.95.95 0 0 1 1.3-.27l1.34.86c.43.28.56.85.27 1.27a.94.94 0 0 1-.79.42zM4.28 21.72a.95.95 0 0 1-.51-.15l-1.34-.86a.91.91 0 0 1-.27-1.28.95.95 0 0 1 1.3-.27l1.34.86c.43.28.56.85.27 1.28a.94.94 0 0 1-.79.42zM4.28 24.36a.95.95 0 0 1-.51-.15l-1.34-.86a.91.91 0 0 1-.27-1.27.95.95 0 0 1 1.3-.27l1.34.86c.44.27.56.85.27 1.27a.95.95 0 0 1-.79.42zM4.28 27a.95.95 0 0 1-.51-.14L2.43 26a.91.91 0 0 1-.27-1.28.95.95 0 0 1 1.3-.27l1.34.86c.43.28.56.85.27 1.28a.94.94 0 0 1-.79.42zM3.62 30.85a.93.93 0 0 1-.94-.93v-1.6c0-.5.42-.92.94-.92s.94.41.94.92v1.6c0 .51-.42.93-.94.93zM13.97 30.85a.93.93 0 0 1-.94-.93v-3.54c0-.51.42-.92.94-.92s.95.41.95.92v3.54c0 .51-.43.93-.95.93zM13.97 24.84a.95.95 0 0 1-.35-.07l-3.15-1.26a.92.92 0 0 1-.58-.86v-4c0-.3.16-.6.42-.76.26-.18.59-.21.88-.1l3.14 1.27c.35.14.59.48.59.85v4c0 .31-.16.6-.42.77a.95.95 0 0 1-.53.16zm-2.2-2.8l1.26.5v-2l-1.26-.51v2z"/>
            <path d="M13.97 24.84a.94.94 0 0 1-.87-.57.92.92 0 0 1 .52-1.2l2.56-1.04v-2l-1.85.74a.95.95 0 0 1-1.23-.5.92.92 0 0 1 .52-1.2l3.14-1.27a.96.96 0 0 1 .88.08c.26.18.42.46.42.77v4c0 .38-.23.72-.59.86l-3.14 1.26a.96.96 0 0 1-.36.07z"/>
        </g>
    </g>
</svg>