<svg width="19" height="19" xmlns="http://www.w3.org/2000/svg">
    <g fill="#44444D" fill-rule="nonzero">
        <path d="M13.454 11.395a.489.489 0 0 1-.245-.066c-1.082-.625-1.69-1.38-1.86-2.307-.081-.46-.007-1.19.473-1.74.258-.297.733-.65 1.53-.65.911 0 1.627.486 1.913 1.299a2.278 2.278 0 0 1-.794 2.56.489.489 0 0 1-.67-.085.451.451 0 0 1 .088-.647c.526-.39.635-1.066.472-1.531-.089-.252-.337-.673-1.01-.673-.345 0-.614.108-.8.321-.249.287-.31.713-.26.988.118.654.566 1.186 1.408 1.672.226.13.3.414.165.633a.48.48 0 0 1-.41.226z"/>
        <path d="M16.443 15.865h-6.236a.47.47 0 0 1-.478-.461c0-2.242.174-2.7.23-2.85.325-.853 1.662-1.37 1.814-1.426a.484.484 0 0 1 .608.245c.183.402.542.642.959.642.41 0 .763-.24.946-.642a.47.47 0 0 1 .264-.245.494.494 0 0 1 .366.009c.243.104 1.468.66 1.783 1.4.203.477.194 1.014.186 1.445l-.003.21a.47.47 0 0 1-.477.462.47.47 0 0 1-.478-.462l.003-.226c.007-.364.014-.777-.114-1.077-.093-.221-.516-.511-.91-.724a1.968 1.968 0 0 1-1.566.773 1.987 1.987 0 0 1-1.591-.787c-.388.194-.798.473-.893.721-.037.097-.15.522-.169 2.07h5.756a.47.47 0 0 1 .478.462.47.47 0 0 1-.478.461zM5.724 11.395a.489.489 0 0 1-.245-.066c-1.082-.625-1.69-1.38-1.859-2.306-.082-.46-.008-1.191.472-1.741.258-.297.733-.65 1.53-.65.911 0 1.627.486 1.913 1.299a2.278 2.278 0 0 1-.793 2.56.488.488 0 0 1-.67-.084.451.451 0 0 1 .088-.648c.525-.39.635-1.066.471-1.531-.088-.252-.337-.673-1.01-.673-.344 0-.613.108-.798.321-.25.287-.311.713-.262.988.12.654.567 1.186 1.409 1.672.226.13.3.414.165.633a.482.482 0 0 1-.411.226z"/>
        <path d="M8.713 15.865H2.477A.47.47 0 0 1 2 15.404c0-2.243.173-2.7.23-2.85.325-.853 1.661-1.37 1.813-1.426a.484.484 0 0 1 .608.245c.183.402.542.642.96.642.408 0 .762-.24.945-.642a.471.471 0 0 1 .264-.245.494.494 0 0 1 .366.009c.243.104 1.468.66 1.784 1.4.203.477.193 1.014.185 1.445l-.003.21a.47.47 0 0 1-.477.462.47.47 0 0 1-.477-.462c0-.071 0-.147.002-.226.007-.364.014-.777-.113-1.077-.094-.221-.517-.511-.91-.724a1.968 1.968 0 0 1-1.567.773 1.986 1.986 0 0 1-1.59-.787c-.388.194-.799.473-.894.722-.036.096-.15.52-.168 2.07h5.755a.47.47 0 0 1 .478.46.47.47 0 0 1-.478.462zM9.449 8.413a.49.49 0 0 1-.267-.078c-1.536-.998-2.33-1.883-2.428-2.705-.051-.428.09-.827.405-1.156A1.49 1.49 0 0 1 8.254 4c.456 0 .874.192 1.195.435.321-.243.739-.435 1.195-.435.418 0 .796.164 1.095.474.316.329.456.728.405 1.156-.099.822-.893 1.707-2.43 2.704a.486.486 0 0 1-.265.079zm-1.195-3.49a.523.523 0 0 0-.395.18c-.127.132-.175.262-.156.421.033.282.311.889 1.746 1.868 1.435-.98 1.713-1.586 1.746-1.868.02-.16-.028-.289-.156-.421a.524.524 0 0 0-.395-.18c-.267 0-.599.179-.827.445a.482.482 0 0 1-.367.167.483.483 0 0 1-.368-.166c-.229-.267-.561-.446-.828-.446zM15.775 11.164a.477.477 0 0 1-.45-.307l-1.007-2.733a.458.458 0 0 1 .29-.59.481.481 0 0 1 .61.28l1.006 2.733a.457.457 0 0 1-.29.59.491.491 0 0 1-.16.027zM10.928 11.164a.489.489 0 0 1-.16-.027.458.458 0 0 1-.29-.59l1.006-2.732a.481.481 0 0 1 .61-.28c.248.085.378.349.29.589l-1.007 2.733a.477.477 0 0 1-.45.307z"/>
        <path d="M13.693 8.941h-1.884a.47.47 0 0 1-.478-.462.47.47 0 0 1 .478-.461h1.884a.47.47 0 0 1 .477.461.47.47 0 0 1-.477.462z"/>
    </g>
</svg>